<?xml version="1.0" encoding="UTF-8" standalone="no"?>
<!-- Created with Inkscape (http://www.inkscape.org/) -->

<svg
   width="360mm"
   height="360mm"
   viewBox="0 0 360 360"
   version="1.1"
   id="svg1"
   xmlns="http://www.w3.org/2000/svg"
   xmlns:svg="http://www.w3.org/2000/svg">
  <defs
     id="defs1" />
  <g
     id="layer1">
    <g
       id="g12"
       transform="scale(1.2)">
      <path
         style="fill:#000000;fill-opacity:0.8;stroke-width:0"
         d="M 2.4163039,102.8918 102.89178,2.4162972 A 8.2497515,8.2497515 157.5 0 1 108.72524,4.1288586e-7 L 191.27477,1.0387114e-5 A 8.2497544,8.2497544 22.500006 0 1 197.10823,2.416308 L 300,105.3081 v 89.38384 L 197.10823,297.5837 A 8.2497787,8.2497787 157.5 0 1 191.27476,300 l -82.54952,0 a 8.2498023,8.2498023 22.5 0 1 -5.83349,-2.41631 L 2.4163112,197.10825 A 8.2498023,8.2498023 67.5 0 1 0,191.27476 v -82.54949 a 8.2497793,8.2497793 112.5 0 1 2.4163039,-5.83347 z"
         id="path4" />
      <path
         style="fill:#49c3ff;fill-opacity:0.9;stroke-width:0"
         d="m 11.469116,191.27476 -10e-7,-82.54949 97.256145,-97.256161 h 82.54951 z"
         id="path2" />
      <path
         style="fill:#49c3ff;fill-opacity:0.9;stroke-width:0"
         d="m 108.72524,11.469121 82.54952,-2e-6 97.25614,97.256151 v 82.54949 z"
         id="path2-5" />
      <path
         style="fill:#85cc4d;fill-opacity:0.9;stroke-width:0"
         d="m 288.5309,108.72527 v 82.54949 l -97.25614,97.25614 h -82.54952 z"
         id="path2-5-8" />
      <path
         style="fill:#85cc4d;fill-opacity:0.9;stroke-width:0"
         d="M 191.27476,288.5309 H 108.72524 L 11.469115,191.27476 v -82.54949 z"
         id="path2-5-8-2" />
    </g>
  </g>
</svg>
